<svg xmlns="http://www.w3.org/2000/svg" width="14" height="14" viewBox="0 0 24 24" fill="currentColor" aria-hidden="true">
  <path d="M11.979 0C5.678 0 .511 4.86.022 10.944l6.432 2.658a3.387 3.387 0 0 1 1.912-.588c.063 0 .125.002.188.006l2.861-4.142V8.83a4.528 4.528 0 0 1 4.524-4.524 4.528 4.528 0 0 1 4.524 4.524 4.528 4.528 0 0 1-4.524 4.524h-.105l-4.076 2.911c0 .052.004.105.004.159 0 1.875-1.515 3.396-3.39 3.396a3.406 3.406 0 0 1-3.328-2.734L.533 15.26A12.018 12.018 0 0 0 11.979 24c6.627 0 12-5.373 12-12s-5.373-12-12-12zM7.54 18.21l-1.473-.61a2.541 2.541 0 0 0 4.886-.862 2.542 2.542 0 0 0-2.54-2.541c-.127 0-.254.01-.378.028l1.523.63a1.868 1.868 0 0 1-1.432 3.45l-.586-.095zm8.399-6.238a3.02 3.02 0 0 0 3.016-3.016 3.023 3.023 0 0 0-3.016-3.016 3.023 3.023 0 0 0-3.016 3.016 3.02 3.02 0 0 0 3.016 3.016z"/>
</svg>
